<?xml version="1.0" encoding="utf-8"?>
<svg width="16" height="16" fill="currentColor" class="bi bi-arrow-clockwise" viewBox="0 0 16 16" xmlns="http://www.w3.org/2000/svg">
  <path fill-rule="evenodd" d="M 8.856 12.143 C 5.007 12.141 2.603 7.974 4.529 4.641 C 6.455 1.309 11.266 1.311 13.189 4.645 C 13.999 6.048 14.078 7.757 13.402 9.229 C 13.256 9.585 13.55 9.966 13.931 9.915 C 14.094 9.893 14.236 9.792 14.31 9.646 C 16.237 5.448 12.897 0.739 8.298 1.169 C 3.7 1.599 1.291 6.846 3.963 10.614 C 5.088 12.2 6.912 13.143 8.856 13.143 L 8.856 12.143 Z" transform="matrix(0, 1, -1, 0, 16.000229, -1.715641)"/>
  <path d="M 1.929 6.605 L 1.929 10.537 C 1.929 10.729 2.138 10.85 2.304 10.753 C 2.317 10.746 2.328 10.738 2.339 10.729 L 4.699 8.763 C 4.819 8.663 4.819 8.479 4.699 8.379 L 2.339 6.413 C 2.191 6.29 1.965 6.373 1.933 6.563 C 1.93 6.577 1.929 6.591 1.929 6.605 Z" transform="matrix(0, 1, -1, 0, 11.930078, 5.212078)"/>
  <path d="M 9.21 3.255 C 9.21 2.928 8.854 2.722 8.571 2.886 C 8.44 2.963 8.358 3.103 8.358 3.255 L 8.358 7.938 C 8.358 8.091 8.44 8.232 8.573 8.308 L 11.553 10.011 C 11.841 10.167 12.19 9.952 12.181 9.625 C 12.177 9.48 12.099 9.347 11.975 9.272 L 9.21 7.692 L 9.21 3.255 Z" style=""/>
</svg>