<?xml version="1.0" encoding="utf-8"?>
<svg width="16" height="16" fill="currentColor" class="bi bi-arrow-clockwise" viewBox="0 0 16 16" xmlns="http://www.w3.org/2000/svg">
  <path fill-rule="evenodd" d="M 7.142 2.142 C 3.293 2.144 0.889 6.311 2.815 9.644 C 4.741 12.976 9.552 12.974 11.475 9.64 C 12.285 8.237 12.364 6.528 11.688 5.056 C 11.542 4.7 11.836 4.319 12.217 4.37 C 12.38 4.392 12.522 4.493 12.596 4.639 C 14.523 8.837 11.183 13.546 6.584 13.116 C 1.986 12.686 -0.423 7.439 2.249 3.671 C 3.374 2.085 5.198 1.142 7.142 1.142 L 7.142 2.142 Z" transform="matrix(0, 1, -1, 0, 14.286643, -0.00123)"/>
  <path d="M 11.213 10.537 L 11.213 6.605 C 11.213 6.413 11.422 6.292 11.588 6.389 C 11.601 6.396 11.612 6.404 11.623 6.413 L 13.983 8.379 C 14.103 8.479 14.103 8.663 13.983 8.763 L 11.623 10.729 C 11.475 10.852 11.249 10.769 11.217 10.579 C 11.214 10.565 11.213 10.551 11.213 10.537 Z" transform="matrix(0, 1, -1, 0, 21.213922, -4.072078)"/>
  <path d="M 7.531 3.502 C 7.531 3.175 7.175 2.969 6.892 3.133 C 6.761 3.21 6.679 3.35 6.679 3.502 L 6.679 8.185 C 6.679 8.338 6.761 8.479 6.894 8.555 L 9.874 10.258 C 10.162 10.414 10.511 10.199 10.502 9.872 C 10.498 9.727 10.42 9.594 10.296 9.519 L 7.531 7.939 L 7.531 3.502 Z" style=""/>
</svg>